<svg width="16" height="16" viewBox="0 0 16 16" fill="none" xmlns="http://www.w3.org/2000/svg">
<path fill-rule="evenodd" clip-rule="evenodd" d="M10.5619 1.79173C10.3364 2.03456 10.3505 2.4142 10.5933 2.63968L12.2736 4.2L5.40156 4.2C5.07019 4.2 4.80156 4.46863 4.80156 4.8C4.80156 5.13137 5.07019 5.4 5.40156 5.4L12.2736 5.4L10.5933 6.96032C10.3505 7.18581 10.3364 7.56544 10.5619 7.80827C10.7874 8.0511 11.167 8.06516 11.4098 7.83968L14.2098 5.23968C14.3321 5.12615 14.4016 4.96684 14.4016 4.8C14.4016 4.63316 14.3321 4.47385 14.2098 4.36032L11.4098 1.76032C11.167 1.53484 10.7874 1.5489 10.5619 1.79173ZM5.44124 8.19173C5.21576 7.9489 4.83612 7.93484 4.59329 8.16032L1.79329 10.7603C1.67103 10.8739 1.60156 11.0332 1.60156 11.2C1.60156 11.3668 1.67103 11.5261 1.79329 11.6397L4.59329 14.2397C4.83612 14.4652 5.21576 14.4511 5.44124 14.2083C5.66672 13.9654 5.65266 13.5858 5.40983 13.3603L3.72948 11.8H10.6016C10.9329 11.8 11.2016 11.5314 11.2016 11.2C11.2016 10.8686 10.9329 10.6 10.6016 10.6H3.72948L5.40983 9.03968C5.65266 8.81419 5.66672 8.43456 5.44124 8.19173Z" fill="#010101"/>
</svg>
