<svg width="16" height="16" viewBox="0 0 16 16" fill="none" xmlns="http://www.w3.org/2000/svg">
<path d="M6.58594 5.01256C7.36699 4.32915 8.63332 4.32915 9.41436 5.01256C10.1954 5.69598 10.1954 6.80402 9.41436 7.48744C9.27842 7.60639 9.12778 7.70463 8.96755 7.78217C8.47043 8.02276 8.00015 8.44772 8.00015 9V9.5M14 8C14 11.3137 11.3137 14 8 14C4.68629 14 2 11.3137 2 8C2 4.68629 4.68629 2 8 2C11.3137 2 14 4.68629 14 8ZM8 11.5H8.005V11.505H8V11.5Z" stroke="#0F172A" stroke-width="1.3" stroke-linecap="round" stroke-linejoin="round"/>
</svg>
