<svg width="12" height="14" viewBox="0 0 12 14" fill="none" xmlns="http://www.w3.org/2000/svg">
<path d="M10.6654 4.92667L7.31736 4.52733M7.31736 4.52733L6.14736 4.388C5.61203 4.324 5.3447 4.292 5.14203 4.42933C4.93936 4.56667 4.8647 4.82933 4.7167 5.35467L4.27136 6.936C4.01403 7.848 3.88536 8.30467 4.1267 8.58067C4.36736 8.85667 4.82936 8.78267 5.75336 8.63467L6.09203 8.58067M7.31736 4.52733L6.09203 8.58067M10.6654 13L10.3614 10.6867C10.192 9.40133 10.108 8.75867 9.65936 8.42C9.21136 8.08067 8.58003 8.182 7.31736 8.384L6.09203 8.58067M4.66536 10.3333L4.2967 11.0707C4.10321 11.4575 3.78953 11.7712 3.4027 11.9647L1.33203 13M7.66536 2C7.66536 2.26522 7.56001 2.51957 7.37247 2.70711C7.18493 2.89464 6.93058 3 6.66536 3C6.40015 3 6.14579 2.89464 5.95826 2.70711C5.77072 2.51957 5.66536 2.26522 5.66536 2C5.66536 1.73478 5.77072 1.48043 5.95826 1.29289C6.14579 1.10536 6.40015 1 6.66536 1C6.93058 1 7.18493 1.10536 7.37247 1.29289C7.56001 1.48043 7.66536 1.73478 7.66536 2Z" stroke="#010101" stroke-width="1.3" stroke-linecap="round" stroke-linejoin="round"/>
</svg>
